<svg xmlns="http://www.w3.org/2000/svg" width="32" height="32" fill="none"><path fill="url(#a)" d="M21.438 6.866A8.798 8.798 0 0 1 22.67 1.4c-3.327 1.25-5.397 4.657-5.028 8.275.445 4.363 4.228 7.532 8.461 7.083a7.547 7.547 0 0 0 4.528-2.169c-4.603.475-8.717-2.976-9.193-7.717v-.006Z"/><g filter="url(#b)"><path fill="url(#c)" d="M17.059 11.914a5.108 5.108 0 0 1 2.44-.635 5.032 5.032 0 0 1 4.997 4.5 4.354 4.354 0 0 1 5.348 3.015c.097.38.156.771.156 1.161a4.33 4.33 0 0 1-5.914 4.04c-.683.499-1.581.801-2.577.801-1.103 0-2.088-.37-2.781-.956-1.493.595-3.494.956-5.71.956-2.215 0-4.177-.361-5.66-.937A3.511 3.511 0 0 1 2 20.873c0-1.074.478-2.04 1.23-2.694a1.595 1.595 0 0 1 1.151-2.293 6.585 6.585 0 0 1-.097-1.162C4.284 11.016 7.29 8 10.989 8a6.668 6.668 0 0 1 6.08 3.923l-.01-.01Z"/></g><path fill="url(#d)" fill-rule="evenodd" d="M21.758 29.63c-1.146-.528-1.713-1.746-1.266-2.727.445-.975 4.772-6.023 5.128-5.894.356.13-.53 6.828-.977 7.806-.444.98-1.736 1.347-2.885.815Z" clip-rule="evenodd"/><path fill="url(#e)" fill-rule="evenodd" d="M4.258 29.63c-1.146-.528-1.713-1.746-1.266-2.727.445-.975 4.772-6.023 5.128-5.894.356.13-.53 6.828-.977 7.806-.444.98-1.736 1.347-2.885.815Z" clip-rule="evenodd"/><path fill="url(#f)" d="M14.19 15 11 22.58h4.15l-2.42 7.58 7.89-9.75h-5.19L19.38 15h-5.19Z"/><defs><linearGradient id="a" x1="23.959" x2="23.959" y1="5.101" y2="16.187" gradientUnits="userSpaceOnUse"><stop stop-color="#6A769A"/><stop offset="1" stop-color="#586587"/></linearGradient><linearGradient id="c" x1="20.348" x2="11.681" y1="11.084" y2="27.158" gradientUnits="userSpaceOnUse"><stop stop-color="#fff"/><stop offset="1" stop-color="#8F95A3"/></linearGradient><linearGradient id="d" x1="21.98" x2="19.026" y1="24.401" y2="27.462" gradientUnits="userSpaceOnUse"><stop stop-color="#3794FA"/><stop offset="1" stop-color="#83BEFF"/></linearGradient><linearGradient id="e" x1="4.48" x2="1.527" y1="24.401" y2="27.462" gradientUnits="userSpaceOnUse"><stop stop-color="#3794FA"/><stop offset="1" stop-color="#83BEFF"/></linearGradient><linearGradient id="f" x1="16.172" x2="16.172" y1="18.784" y2="29.858" gradientUnits="userSpaceOnUse"><stop stop-color="#FB7217"/><stop offset="1" stop-color="#FD3333"/></linearGradient><filter id="b" width="28.8" height="17.596" x="1.8" y="7.4" color-interpolation-filters="sRGB" filterUnits="userSpaceOnUse"><feFlood flood-opacity="0" result="BackgroundImageFix"/><feColorMatrix in="SourceAlpha" result="hardAlpha" values="0 0 0 0 0 0 0 0 0 0 0 0 0 0 0 0 0 0 127 0"/><feOffset dx=".2" dy="-.2"/><feGaussianBlur stdDeviation=".2"/><feComposite in2="hardAlpha" operator="out"/><feColorMatrix values="0 0 0 0 0 0 0 0 0 0 0 0 0 0 0 0 0 0 0.05 0"/><feBlend in2="BackgroundImageFix" result="effect1_dropShadow_525_2009"/><feBlend in="SourceGraphic" in2="effect1_dropShadow_525_2009" result="shape"/></filter></defs></svg>
