<svg xmlns="http://www.w3.org/2000/svg" width="32" height="32" fill="none"><path fill="url(#a)" d="M12.136 12.518c-.31-2.98.38-5.979 1.97-8.518a12.357 12.357 0 0 0-8.038 12.897c.71 6.798 6.758 11.737 13.526 11.037 2.72-.28 5.269-1.47 7.238-3.38-7.358.74-13.936-4.638-14.696-12.026v-.01Z"/><g filter="url(#b)"><path fill="url(#c)" d="M20.75 14.389a3.61 3.61 0 0 1 1.745-.454 3.603 3.603 0 0 1 3.573 3.21A3.106 3.106 0 0 1 30 20.136a3.1 3.1 0 0 1-3.087 3.106c-.39 0-.771-.074-1.13-.211a3.17 3.17 0 0 1-1.84.57c-.782 0-1.49-.264-1.987-.676-1.068.422-2.495.676-4.08.676-1.586 0-2.982-.254-4.039-.676-.402.243-.856.38-1.321.38A2.514 2.514 0 0 1 10 20.79c0-.771.349-1.458.877-1.922a1.134 1.134 0 0 1 .508-1.532c.106-.053.211-.085.317-.106a4.792 4.792 0 0 1 4.715-5.63 4.777 4.777 0 0 1 4.344 2.8l-.01-.011Z"/></g><defs><linearGradient id="a" x1="16.167" x2="16.167" y1="9.769" y2="27.044" gradientUnits="userSpaceOnUse"><stop stop-color="#6A769A"/><stop offset="1" stop-color="#586587"/></linearGradient><linearGradient id="c" x1="9.52" x2="29.52" y1="7.2" y2="29.7" gradientUnits="userSpaceOnUse"><stop stop-color="#fff"/><stop offset=".391" stop-color="#F5F5F5"/><stop offset=".971" stop-color="#8F95A3"/></linearGradient><filter id="b" width="20.8" height="12.8" x="9.4" y="11" color-interpolation-filters="sRGB" filterUnits="userSpaceOnUse"><feFlood flood-opacity="0" result="BackgroundImageFix"/><feColorMatrix in="SourceAlpha" result="hardAlpha" values="0 0 0 0 0 0 0 0 0 0 0 0 0 0 0 0 0 0 127 0"/><feOffset dx="-.2" dy="-.2"/><feGaussianBlur stdDeviation=".2"/><feComposite in2="hardAlpha" operator="out"/><feColorMatrix values="0 0 0 0 0 0 0 0 0 0 0 0 0 0 0 0 0 0 0.05 0"/><feBlend in2="BackgroundImageFix" result="effect1_dropShadow_521_721"/><feBlend in="SourceGraphic" in2="effect1_dropShadow_521_721" result="shape"/></filter></defs></svg>
