<svg xmlns="http://www.w3.org/2000/svg" width="32" height="32" fill="none"><path fill="url(#a)" d="M21.438 7.866A8.798 8.798 0 0 1 22.67 2.4c-3.327 1.25-5.397 4.657-5.028 8.275.445 4.363 4.228 7.532 8.461 7.083a7.547 7.547 0 0 0 4.528-2.169c-4.603.475-8.717-2.976-9.193-7.717v-.006Z"/><g filter="url(#b)"><path fill="url(#c)" d="M17.059 12.914a5.108 5.108 0 0 1 2.44-.635 5.032 5.032 0 0 1 4.997 4.5 4.354 4.354 0 0 1 5.348 3.015c.097.38.156.771.156 1.161a4.33 4.33 0 0 1-5.914 4.04c-.683.499-1.581.801-2.577.801-1.103 0-2.088-.37-2.781-.956-1.493.595-3.494.956-5.71.956-2.215 0-4.177-.361-5.66-.937A3.511 3.511 0 0 1 2 21.873c0-1.074.478-2.04 1.23-2.694a1.595 1.595 0 0 1 1.151-2.293 6.585 6.585 0 0 1-.097-1.162C4.284 12.016 7.29 9 10.989 9a6.668 6.668 0 0 1 6.08 3.923l-.01-.01Z"/></g><defs><linearGradient id="a" x1="23.959" x2="23.959" y1="6.101" y2="17.187" gradientUnits="userSpaceOnUse"><stop stop-color="#6A769A"/><stop offset="1" stop-color="#586587"/></linearGradient><linearGradient id="c" x1="20.348" x2="11.681" y1="12.084" y2="28.158" gradientUnits="userSpaceOnUse"><stop stop-color="#fff"/><stop offset="1" stop-color="#8F95A3"/></linearGradient><filter id="b" width="28.8" height="17.596" x="1.8" y="8.4" color-interpolation-filters="sRGB" filterUnits="userSpaceOnUse"><feFlood flood-opacity="0" result="BackgroundImageFix"/><feColorMatrix in="SourceAlpha" result="hardAlpha" values="0 0 0 0 0 0 0 0 0 0 0 0 0 0 0 0 0 0 127 0"/><feOffset dx=".2" dy="-.2"/><feGaussianBlur stdDeviation=".2"/><feComposite in2="hardAlpha" operator="out"/><feColorMatrix values="0 0 0 0 0 0 0 0 0 0 0 0 0 0 0 0 0 0 0.05 0"/><feBlend in2="BackgroundImageFix" result="effect1_dropShadow_521_725"/><feBlend in="SourceGraphic" in2="effect1_dropShadow_521_725" result="shape"/></filter></defs></svg>
